<svg xmlns="http://www.w3.org/2000/svg" style="display: none;">
    <symbol id="icon-plug" viewBox="0 0 24 24">
        <path d="M10.25 2C10.25 1.58579 9.91421 1.25 9.5 1.25C9.08579 1.25 8.75 1.58579 8.75 2V5H8.42C7.37 5 6.51 5.86 6.51 6.91V12C6.5 14.2 7.99999 16 10.5 16H11.25V22C11.25 22.4142 11.5858 22.75 12 22.75C12.4142 22.75 12.75 22.4142 12.75 22V16H13.5C16 16 17.5 14.2 17.5 12V6.91C17.5 5.86 16.64 5 15.59 5H15.25V2C15.25 1.58579 14.9142 1.25 14.5 1.25C14.0858 1.25 13.75 1.58579 13.75 2V5H10.25V2Z"/>
    </symbol>
    <symbol id="icon-door-open" viewBox="0 0 24 24">  
        <path fill-rule="evenodd" clip-rule="evenodd" d="M10.7582 2.6911L4.47249 4.40985C3.603 4.6476 3 5.43762 3 6.33903V20C3 21.1045 3.89543 22 5 22H11.2857C12.3903 22 13.2857 21.1046 13.2857 20V4.62028C13.2857 3.30098 12.0308 2.34313 10.7582 2.6911ZM10 14.4999C10.5523 14.4999 11 13.7537 11 12.8333C11 11.9128 10.5523 11.1666 10 11.1666C9.44772 11.1666 9 11.9128 9 12.8333C9 13.7537 9.44772 14.4999 10 14.4999Z" />
        <path d="M15.8214 4.49998H19C20.1046 4.49998 21 5.39541 21 6.49998V20.7143C21 21.4243 20.4244 22 19.7143 22C19.0042 22 18.4286 21.4243 18.4286 20.7143V8.92855C18.4286 7.86343 17.5651 6.99998 16.5 6.99998H15.8214C15.1311 6.99998 14.5714 6.44034 14.5714 5.74998C14.5714 5.05963 15.1311 4.49998 15.8214 4.49998Z" />
    </symbol>
    <symbol id="icon-blind" viewBox="0 0 24 24">    
        <path d="M4.5 3C3.67157 3 3 3.67157 3 4.5C3 4.84998 3.11986 5.17197 3.32077 5.42715L3 8H7V6H8V8H21L20.6115 5.50725C20.8529 5.24102 21 4.88769 21 4.5C21 3.67157 20.3284 3 19.5 3H4.5Z" />
        <path d="M7 9H3.37403L3 12H7V9Z" />
        <path d="M8 12V9H20.5325L21 12H8Z" />
        <path d="M7 13V14.5C7 14.7761 7.22386 15 7.5 15C7.77614 15 8 14.7761 8 14.5V13H20.5325L21 16H3L3.37403 13H7Z" />
        <path d="M3.37403 17L3 20H21L20.5325 17H3.37403Z" />
    </symbol>
    <symbol id="icon-light-bulb" viewBox="0 0 24 24">    
        <path d="M13.5 18.1539H10.5C9.94772 18.1539 9.5 18.6016 9.5 19.1539V19.2545C9.5 19.5336 9.61664 19.8 9.82172 19.9893L10.6434 20.7478C11.4096 21.455 12.5904 21.455 13.3566 20.7478L14.1783 19.9893C14.3834 19.8 14.5 19.5336 14.5 19.2545V19.1539C14.5 18.6016 14.0523 18.1539 13.5 18.1539Z" />
        <ellipse cx="21.1667" cy="8.9231" rx="0.833333" ry="0.769231" />
        <ellipse cx="18.6667" cy="15.0769" rx="0.833333" ry="0.769231" />
        <ellipse cx="2.83333" cy="8.9231" rx="0.833333" ry="0.769231" />
        <ellipse cx="18.6667" cy="2.76923" rx="0.833333" ry="0.769231" />
        <ellipse cx="5.33333" cy="15.0769" rx="0.833333" ry="0.769231" />
        <ellipse cx="5.33333" cy="2.76923" rx="0.833333" ry="0.769231" />
        <path fill-rule="evenodd" clip-rule="evenodd" d="M6.57149 12.8309L9.19974 16.2274C9.38913 16.4722 9.68115 16.6154 9.99061 16.6154H14.0094C14.3188 16.6154 14.6109 16.4722 14.8002 16.2274L17.4285 12.8309C18.2312 11.7936 18.6667 10.5192 18.6667 9.20764C18.6667 7.55523 17.9761 5.978 16.7619 4.85721L16.337 4.46499C15.1559 3.37471 13.6074 2.76929 12 2.76929C10.3926 2.76929 8.84412 3.37471 7.66299 4.46499L7.23808 4.85721C6.02389 5.978 5.33333 7.55523 5.33333 9.20764C5.33333 10.5192 5.76883 11.7936 6.57149 12.8309ZM11.1145 9.81997H10.3421C9.99211 9.81997 9.89461 9.60499 10.1246 9.34001L12.0169 7.1902C12.2944 6.87523 12.5219 6.96022 12.5219 7.38019V9.18003H13.2943C13.6468 9.18003 13.7443 9.39751 13.5118 9.65999L11.6195 11.8098C11.342 12.1248 11.1145 12.0398 11.1145 11.6198V9.81997Z" />
    </symbol>
    <symbol id="icon-home-security" viewBox="0 0 24 24">    
        <path d="M2.40053 11.0992L9.22671 3.29615C9.65316 2.89717 10.2807 2.90183 10.7022 3.3071L17.5 8.92047C15.6443 8.94216 14.146 10.6048 14.146 12.6526V13.9437C13.4557 14.2513 12.9687 14.9963 12.9687 15.8665V20.9466C12.9687 21.3312 13.0638 21.6913 13.2295 22H13.1925C12.5683 22 12.0623 21.443 12.0623 20.7559V17.0236C12.0623 16.3365 11.5562 15.7795 10.932 15.7795H9.50487C8.88065 15.7795 8.37463 16.3365 8.37463 17.0236V20.7559C8.37463 21.443 7.8686 22 7.24439 22H5.42615C4.80194 22 4.29592 21.443 4.29592 20.7559V13.2913H3.1325C2.08085 13.2913 1.59921 11.8489 2.40053 11.0992Z" />
        <path fill-rule="evenodd" clip-rule="evenodd" d="M14.9925 12.9834V15.0873H14.744C14.195 15.0873 13.75 15.5358 13.75 16.0891V20.9982C13.75 21.5515 14.195 22 14.744 22H21.006C21.555 22 22 21.5515 22 20.9982V16.0891C22 15.5358 21.555 15.0873 21.006 15.0873H20.8072V12.9834C20.8072 11.5448 19.6502 10.3786 18.2229 10.3786H17.5768C16.1495 10.3786 14.9925 11.5448 14.9925 12.9834ZM16.7319 13.284V15.0873H19.1175V13.284C19.1175 12.62 18.5835 12.0818 17.9247 12.0818C17.266 12.0818 16.7319 12.62 16.7319 13.284Z" />
    </symbol>
    <symbol id="icon-aircondition" viewBox="0 0 24 24">    
        <path fill-rule="evenodd" clip-rule="evenodd" d="M3.32259 2H20.6774C21.0635 2 21.4303 2.16871 21.6816 2.46186C21.8871 2.70157 22 3.00687 22 3.32259V8.70331C22 9.22539 21.8638 9.73843 21.6047 10.1917L20.0066 12.9884C19.4725 13.9231 18.4785 14.5 17.4019 14.5H6.3541C5.21779 14.5 4.179 13.858 3.67082 12.8416L2.31672 10.1334C2.10844 9.71687 2 9.25753 2 8.7918V3.32259C2 3.00687 2.11294 2.70157 2.31841 2.46186C2.56967 2.16871 2.93649 2 3.32259 2ZM6.31707 9.5H17.6829C18.5373 9.5 18.9982 10.5021 18.4422 11.1508L18.0136 11.6508C17.8236 11.8724 17.5463 12 17.2543 12H6.74565C6.45372 12 6.17637 11.8724 5.98639 11.6508L5.55782 11.1508C5.00181 10.5021 5.46272 9.5 6.31707 9.5Z"/>
        <ellipse cx="11.6428" cy="17.4166" rx="1.07143" ry="1.25" />
        <ellipse cx="11.6428" cy="20.75" rx="1.07143" ry="1.25" />
        <ellipse cx="7.35713" cy="17.4166" rx="1.07143" ry="1.25" />
        <ellipse cx="5.92858" cy="20.75" rx="1.07143" ry="1.25" />
        <ellipse cx="15.9286" cy="17.4166" rx="1.07143" ry="1.25" />
        <ellipse cx="17.3571" cy="20.75" rx="1.07143" ry="1.25" />
    </symbol>
    <symbol id="icon-water-drop" viewBox="0 0 24 24">    
     <path d="M12.61 2.21C12.25 1.93 11.75 1.93 11.39 2.21C9.49001 3.66 3.88 8.39 3.91 13.9C3.91 18.36 7.54001 22 12.01 22C16.48 22 20.11 18.37 20.11 13.91C20.12 8.48 14.5 3.67 12.61 2.21Z" />
    </symbol>
    
    <symbol id="icon-audio-speaker" viewBox="0 0 24 24">    
        <path fill-rule="evenodd" clip-rule="evenodd" d="M4 4C4 2.89543 4.89543 2 6 2H17C18.1046 2 19 2.89543 19 4V20C19 21.1046 18.1046 22 17 22H6C4.89543 22 4 21.1046 4 20V4ZM16 14.5C16 16.9853 13.9853 19 11.5 19C9.01472 19 7 16.9853 7 14.5C7 12.0147 9.01472 10 11.5 10C13.9853 10 16 12.0147 16 14.5ZM11.5 8C12.3284 8 13 7.32843 13 6.5C13 5.67157 12.3284 5 11.5 5C10.6716 5 10 5.67157 10 6.5C10 7.32843 10.6716 8 11.5 8Z" />
        <circle cx="11.5" cy="14.5" r="1.5" />
    </symbol>
</svg>