<svg xmlns="http://www.w3.org/2000/svg" style="display: none;">
    <symbol id="icon-plug" viewBox="0 0 24 24">
        <path d="M10.25 2C10.25 1.58579 9.91421 1.25 9.5 1.25C9.08579 1.25 8.75 1.58579 8.75 2V5H8.42C7.37 5 6.51 5.86 6.51 6.91V12C6.5 14.2 7.99999 16 10.5 16H11.25V22C11.25 22.4142 11.5858 22.75 12 22.75C12.4142 22.75 12.75 22.4142 12.75 22V16H13.5C16 16 17.5 14.2 17.5 12V6.91C17.5 5.86 16.64 5 15.59 5H15.25V2C15.25 1.58579 14.9142 1.25 14.5 1.25C14.0858 1.25 13.75 1.58579 13.75 2V5H10.25V2Z"/>
    </symbol>
    <symbol id="icon-door-open" viewBox="0 0 24 24">  
        <path fill-rule="evenodd" clip-rule="evenodd" d="M10.7582 2.6911L4.47249 4.40985C3.603 4.6476 3 5.43762 3 6.33903V20C3 21.1045 3.89543 22 5 22H11.2857C12.3903 22 13.2857 21.1046 13.2857 20V4.62028C13.2857 3.30098 12.0308 2.34313 10.7582 2.6911ZM10 14.4999C10.5523 14.4999 11 13.7537 11 12.8333C11 11.9128 10.5523 11.1666 10 11.1666C9.44772 11.1666 9 11.9128 9 12.8333C9 13.7537 9.44772 14.4999 10 14.4999Z" />
        <path d="M15.8214 4.49998H19C20.1046 4.49998 21 5.39541 21 6.49998V20.7143C21 21.4243 20.4244 22 19.7143 22C19.0042 22 18.4286 21.4243 18.4286 20.7143V8.92855C18.4286 7.86343 17.5651 6.99998 16.5 6.99998H15.8214C15.1311 6.99998 14.5714 6.44034 14.5714 5.74998C14.5714 5.05963 15.1311 4.49998 15.8214 4.49998Z" />
    </symbol>
    <symbol id="icon-blind" viewBox="0 0 24 24">    
        <path d="M4.5 3C3.67157 3 3 3.67157 3 4.5C3 4.84998 3.11986 5.17197 3.32077 5.42715L3 8H7V6H8V8H21L20.6115 5.50725C20.8529 5.24102 21 4.88769 21 4.5C21 3.67157 20.3284 3 19.5 3H4.5Z" />
        <path d="M7 9H3.37403L3 12H7V9Z" />
        <path d="M8 12V9H20.5325L21 12H8Z" />
        <path d="M7 13V14.5C7 14.7761 7.22386 15 7.5 15C7.77614 15 8 14.7761 8 14.5V13H20.5325L21 16H3L3.37403 13H7Z" />
        <path d="M3.37403 17L3 20H21L20.5325 17H3.37403Z" />
    </symbol>
    <symbol id="icon-light-bulb" viewBox="0 0 24 24">    
        <path d="M13.5 18.1539H10.5C9.94772 18.1539 9.5 18.6016 9.5 19.1539V19.2545C9.5 19.5336 9.61664 19.8 9.82172 19.9893L10.6434 20.7478C11.4096 21.455 12.5904 21.455 13.3566 20.7478L14.1783 19.9893C14.3834 19.8 14.5 19.5336 14.5 19.2545V19.1539C14.5 18.6016 14.0523 18.1539 13.5 18.1539Z" />
        <ellipse cx="21.1667" cy="8.9231" rx="0.833333" ry="0.769231" />
        <ellipse cx="18.6667" cy="15.0769" rx="0.833333" ry="0.769231" />
        <ellipse cx="2.83333" cy="8.9231" rx="0.833333" ry="0.769231" />
        <ellipse cx="18.6667" cy="2.76923" rx="0.833333" ry="0.769231" />
        <ellipse cx="5.33333" cy="15.0769" rx="0.833333" ry="0.769231" />
        <ellipse cx="5.33333" cy="2.76923" rx="0.833333" ry="0.769231" />
        <path fill-rule="evenodd" clip-rule="evenodd" d="M6.57149 12.8309L9.19974 16.2274C9.38913 16.4722 9.68115 16.6154 9.99061 16.6154H14.0094C14.3188 16.6154 14.6109 16.4722 14.8002 16.2274L17.4285 12.8309C18.2312 11.7936 18.6667 10.5192 18.6667 9.20764C18.6667 7.55523 17.9761 5.978 16.7619 4.85721L16.337 4.46499C15.1559 3.37471 13.6074 2.76929 12 2.76929C10.3926 2.76929 8.84412 3.37471 7.66299 4.46499L7.23808 4.85721C6.02389 5.978 5.33333 7.55523 5.33333 9.20764C5.33333 10.5192 5.76883 11.7936 6.57149 12.8309ZM11.1145 9.81997H10.3421C9.99211 9.81997 9.89461 9.60499 10.1246 9.34001L12.0169 7.1902C12.2944 6.87523 12.5219 6.96022 12.5219 7.38019V9.18003H13.2943C13.6468 9.18003 13.7443 9.39751 13.5118 9.65999L11.6195 11.8098C11.342 12.1248 11.1145 12.0398 11.1145 11.6198V9.81997Z" />
    </symbol>
    <symbol id="icon-home-security" viewBox="0 0 24 24">    
        <path d="M2.40053 11.0992L9.22671 3.29615C9.65316 2.89717 10.2807 2.90183 10.7022 3.3071L17.5 8.92047C15.6443 8.94216 14.146 10.6048 14.146 12.6526V13.9437C13.4557 14.2513 12.9687 14.9963 12.9687 15.8665V20.9466C12.9687 21.3312 13.0638 21.6913 13.2295 22H13.1925C12.5683 22 12.0623 21.443 12.0623 20.7559V17.0236C12.0623 16.3365 11.5562 15.7795 10.932 15.7795H9.50487C8.88065 15.7795 8.37463 16.3365 8.37463 17.0236V20.7559C8.37463 21.443 7.8686 22 7.24439 22H5.42615C4.80194 22 4.29592 21.443 4.29592 20.7559V13.2913H3.1325C2.08085 13.2913 1.59921 11.8489 2.40053 11.0992Z" />
        <path fill-rule="evenodd" clip-rule="evenodd" d="M14.9925 12.9834V15.0873H14.744C14.195 15.0873 13.75 15.5358 13.75 16.0891V20.9982C13.75 21.5515 14.195 22 14.744 22H21.006C21.555 22 22 21.5515 22 20.9982V16.0891C22 15.5358 21.555 15.0873 21.006 15.0873H20.8072V12.9834C20.8072 11.5448 19.6502 10.3786 18.2229 10.3786H17.5768C16.1495 10.3786 14.9925 11.5448 14.9925 12.9834ZM16.7319 13.284V15.0873H19.1175V13.284C19.1175 12.62 18.5835 12.0818 17.9247 12.0818C17.266 12.0818 16.7319 12.62 16.7319 13.284Z" />
    </symbol>
    <symbol id="icon-air-conditioner" viewBox="0 0 24 24">    
        <path d="M17.2803 16.998C17.2803 16.293 17.2795 15.5887 17.2812 14.8837C17.282 14.4746 17.5498 14.1834 17.9225 14.1826C18.2952 14.1818 18.5679 14.473 18.5687 14.8804C18.5703 16.2293 18.5687 17.5789 18.5695 18.9277C18.5695 19.7368 19.0672 20.2604 19.878 20.3056C20.2361 20.3257 20.5104 20.6145 20.5024 20.9639C20.4951 21.3124 20.2095 21.5866 19.8481 21.5931C18.6389 21.6149 17.4933 20.6468 17.3215 19.4513C17.2957 19.273 17.2836 19.0907 17.282 18.9108C17.2771 18.2735 17.2803 17.6354 17.2803 16.998Z" />
        <path d="M7.9312 15.8752C7.9312 16.5197 7.94007 17.1643 7.92959 17.8081C7.90781 19.1488 6.75501 20.2895 5.41909 20.3032C5.01412 20.3073 4.71483 20.0402 4.70999 19.6692C4.70515 19.3029 4.98347 19.031 5.37957 19.0157C6.09754 18.9883 6.64046 18.4333 6.64207 17.7137C6.6453 16.4383 6.64207 15.1629 6.64369 13.8874C6.64449 13.5317 6.88328 13.2566 7.21323 13.2179C7.52946 13.1816 7.82633 13.3849 7.90861 13.7027C7.92878 13.7793 7.93039 13.8616 7.93039 13.9415C7.93201 14.5861 7.9312 15.2314 7.9312 15.8752V15.8752Z" />
        <path d="M13.0901 17.2917C13.0901 17.8491 13.0893 18.4057 13.0901 18.9632C13.0917 19.7279 13.6136 20.2725 14.3736 20.3047C14.7495 20.3209 15.0286 20.6016 15.023 20.959C15.0173 21.3155 14.7277 21.5898 14.3534 21.5922C13.0231 21.6027 11.83 20.4685 11.8074 19.1358C11.7864 17.9144 11.7993 16.6931 11.8034 15.4709C11.8042 15.1079 12.0881 14.8288 12.4391 14.8255C12.7964 14.8223 13.0852 15.1063 13.0885 15.4782C13.0933 16.084 13.0901 16.6882 13.0901 17.2917Z" />
        <path d="M10.5116 17.2635C10.5116 18.0355 10.5124 18.8075 10.5116 19.5796C10.5108 20.0071 10.2502 20.3016 9.87186 20.304C9.4927 20.3064 9.22326 20.012 9.22326 19.5884C9.22245 18.0242 9.22245 16.4608 9.22326 14.8966C9.22326 14.4723 9.49109 14.1794 9.87186 14.1826C10.2494 14.1851 10.5108 14.4803 10.5108 14.9079C10.5124 15.6928 10.5116 16.4777 10.5116 17.2635Z" />
        <path d="M15.6676 15.6525C15.6676 16.2164 15.6684 16.7803 15.6676 17.3442C15.6668 17.7532 15.3998 18.046 15.0287 18.0484C14.6568 18.0508 14.3809 17.7588 14.3801 17.353C14.3785 16.2051 14.3785 15.0571 14.3801 13.91C14.3809 13.5034 14.6552 13.213 15.0287 13.2162C15.3998 13.2186 15.6668 13.5115 15.6676 13.9213C15.6692 14.4973 15.6676 15.0749 15.6676 15.6525Z" />
        <path d="M19.4373 11.0269C19.4373 10.4074 19.4373 9.81121 19.4373 9.21504C19.4373 8.69229 19.1953 8.44867 18.6782 8.44867C14.2405 8.44867 9.80354 8.44867 5.36581 8.44867C4.85758 8.44867 4.61234 8.6931 4.61234 9.19972C4.61234 9.73699 4.61234 10.2735 4.61234 10.8107C4.61234 10.8761 4.61234 10.9414 4.61234 11.0035C3.68704 11.1439 3.00133 10.5631 3.00053 9.65712C2.99972 8.89881 3.00053 8.1397 3.00053 7.38138C3.00053 7.31523 3.00053 7.24989 3.00053 7.15792C3.09895 7.15792 3.18365 7.15792 3.26836 7.15792C8.72658 7.15792 14.184 7.15954 19.6422 7.15066C19.8229 7.15066 20.027 7.08451 20.1795 6.98529C20.3989 6.8425 20.453 6.56257 20.3715 6.31814C20.286 6.06321 20.0698 5.88977 19.8076 5.87122C19.7342 5.86557 19.66 5.8688 19.5857 5.8688C14.155 5.8688 8.72335 5.8688 3.29256 5.8688C3.20543 5.8688 3.11911 5.8688 3.00053 5.8688C3.00053 5.797 3.00053 5.73327 3.00053 5.66954C3.00053 4.89106 2.99891 4.11258 3.00133 3.3333C3.00295 2.55724 3.55797 2.00141 4.33402 2.00061C9.46311 1.9998 14.5922 1.9998 19.7205 2.00061C20.4941 2.00061 21.0491 2.55885 21.0499 3.33652C21.0515 5.4243 21.0507 7.51207 21.0507 9.59904C21.0507 10.505 20.5183 11.031 19.6083 11.0245C19.5607 11.0261 19.514 11.0269 19.4373 11.0269ZM17.1809 3.60597C17.1769 3.25746 16.8825 2.96866 16.5331 2.97108C16.1742 2.9727 15.8837 3.2736 15.8934 3.63259C15.9023 3.98028 16.2016 4.26505 16.5509 4.25779C16.8994 4.25134 17.185 3.95527 17.1809 3.60597ZM19.113 4.25779C19.4623 4.2594 19.7552 3.97141 19.7592 3.6221C19.7632 3.27279 19.4768 2.97673 19.1283 2.97027C18.7685 2.96382 18.4709 3.25666 18.4725 3.61565C18.4725 3.96495 18.7637 4.25618 19.113 4.25779Z" />
        <path d="M5.91046 11.0132C5.91046 10.5848 5.91046 10.1718 5.91046 9.74744C9.98517 9.74744 14.051 9.74744 18.133 9.74744C18.133 10.1621 18.133 10.5808 18.133 11.0132C14.0671 11.0132 9.99647 11.0132 5.91046 11.0132Z" />
    </symbol>
    <symbol id="icon-water-drop" viewBox="0 0 24 24">    
     <path d="M12.61 2.21C12.25 1.93 11.75 1.93 11.39 2.21C9.49001 3.66 3.88 8.39 3.91 13.9C3.91 18.36 7.54001 22 12.01 22C16.48 22 20.11 18.37 20.11 13.91C20.12 8.48 14.5 3.67 12.61 2.21Z" />
    </symbol>
    
    <symbol id="icon-audio-speaker" viewBox="0 0 24 24">    
        <path fill-rule="evenodd" clip-rule="evenodd" d="M4 4C4 2.89543 4.89543 2 6 2H17C18.1046 2 19 2.89543 19 4V20C19 21.1046 18.1046 22 17 22H6C4.89543 22 4 21.1046 4 20V4ZM16 14.5C16 16.9853 13.9853 19 11.5 19C9.01472 19 7 16.9853 7 14.5C7 12.0147 9.01472 10 11.5 10C13.9853 10 16 12.0147 16 14.5ZM11.5 8C12.3284 8 13 7.32843 13 6.5C13 5.67157 12.3284 5 11.5 5C10.6716 5 10 5.67157 10 6.5C10 7.32843 10.6716 8 11.5 8Z" />
        <circle cx="11.5" cy="14.5" r="1.5" />
    </symbol>
</svg>